<svg width="158" height="76" viewBox="0 0 158 76" fill="none" xmlns="http://www.w3.org/2000/svg">
<g clip-path="url(#clip0_212_2573)">
<path d="M38.9089 38.9678C38.7053 45.5211 39.1362 52.0839 37.9382 58.6181C36.3993 67.0166 30.9964 74.54 20.5884 75.0774C18.8269 75.1678 18.145 74.6114 18.1971 72.8327C18.2823 69.9033 18.2444 66.969 18.2113 64.0396C18.1971 62.8887 18.3723 62.085 19.7502 61.8519C23.3064 61.248 24.9258 59.7071 25.2999 56.1785C26.5311 44.6413 26.5027 33.0898 25.3094 21.5526C24.959 18.1666 23.2354 16.602 19.6177 15.9885C18.3439 15.7745 17.9367 15.2466 18.4528 14.072C19.755 11.1235 19.8781 8.07509 19.0116 5.03148C18.4433 3.04362 19.2246 2.7345 20.953 2.76303C27.7764 2.87241 34.3631 7.82304 36.655 14.5142C38.6911 20.4588 38.9231 26.6031 38.9089 32.7902C38.9089 34.8494 38.9089 36.9086 38.9089 38.9678Z" fill="#FEFEFE"/>
<path d="M13.083 48.869C13.083 56.7824 13.0356 64.6958 13.1209 72.6092C13.1398 74.4782 12.5384 75.1725 10.6822 75.0964C8.00682 74.9918 5.32669 75.0299 2.64656 75.0822C1.37752 75.1059 0.728795 74.6446 0.709854 73.3226C0.695649 72.2954 0.544122 71.2729 0.544122 70.2457C0.534651 56.635 0.529916 43.0243 0.544122 29.4137C0.544122 28.3104 0.747736 27.2023 0.709854 26.099C0.563063 21.8284 1.10288 22.3753 4.73479 22.3563C6.70464 22.3468 8.67449 22.4039 10.6443 22.3373C12.4627 22.2802 13.1398 23.0364 13.1256 24.8863C13.0593 32.8758 13.0972 40.87 13.0972 48.8643H13.083V48.869Z" fill="#FD3C02"/>
<path d="M117.831 48.8738C117.831 40.9509 117.888 33.028 117.798 25.1098C117.774 23.0649 118.356 22.2374 120.482 22.3801C122.916 22.5418 125.374 22.4609 127.817 22.3991C129.399 22.3611 130.071 22.9412 130.071 24.62C130.033 40.6988 130.038 56.7824 130.071 72.8613C130.071 74.5115 129.389 75.1487 127.808 75.125C125.284 75.0822 122.751 74.9966 120.236 75.144C118.281 75.2581 117.793 74.4164 117.807 72.633C117.864 64.7101 117.831 56.7919 117.831 48.869V48.8738Z" fill="#FDFDFD"/>
<path d="M131.364 8.83124C131.359 13.1541 127.817 17.1346 123.934 17.1774C119.914 17.225 116.339 13.2017 116.41 8.70283C116.472 4.4608 120.265 0.0142667 123.835 -2.00514e-07C127.566 -0.0142671 131.364 4.44653 131.359 8.83124H131.364Z" fill="#FCFCFC"/>
<path d="M112.476 39.6241C112.424 35.4534 112.055 31.2636 110.729 27.2356C108.233 19.6551 99.5679 17.5388 94.3544 21.8474C93.8809 22.2422 93.3742 22.8319 92.716 22.518C92.001 22.1803 92.3277 21.3957 92.3277 20.8012C92.3325 15.5795 92.3277 10.353 92.4082 5.13135C92.4367 3.4098 91.8258 2.68694 90.0596 2.76303C87.7014 2.86766 85.3244 2.89619 82.9662 2.75352C80.8496 2.62512 80.2624 3.48114 80.2766 5.52606C80.3524 16.6067 80.3145 27.6921 80.3145 38.7728H80.3287C80.3287 40.2756 80.3287 41.7831 80.3287 43.2859C80.324 53.0207 80.3524 62.7603 80.2813 72.4951C80.2671 74.4164 80.8591 75.2581 82.862 75.1535C85.2202 75.0299 87.5878 75.1107 89.9554 75.125C90.9924 75.1345 91.8684 74.9823 91.9489 73.6792C92.0862 71.4679 92.9528 72.2858 93.9235 73.1704C97.3139 76.2521 101.202 76.8275 105.25 74.716C109.427 72.5379 111.027 68.6573 111.714 64.2821C113.002 56.1024 112.58 47.8561 112.476 39.6336V39.6241ZM100.117 56.5209C100.108 58.0237 100.032 59.536 99.4921 60.9627C98.957 62.3703 98.0905 63.4546 96.4332 63.5164C94.719 63.583 93.6441 62.6889 92.9954 61.1481C92.5266 60.0305 92.342 58.8892 92.3514 57.6813C92.3751 54.3618 92.3609 51.0424 92.3514 47.7182C92.3514 44.4748 92.3514 41.2362 92.3467 37.9929C92.3467 36.9609 92.413 35.9527 92.716 34.9493C93.2416 33.1849 94.2644 31.9342 96.1917 31.9627C98.2231 31.9912 99.2554 33.3656 99.7147 35.2108C100.16 36.9894 100.15 38.8156 100.155 40.6323C100.165 45.93 100.155 51.2231 100.117 56.5209Z" fill="#FEFEFE"/>
<path d="M73.0791 58.1378C70.399 58.1521 67.7141 58.2044 65.034 58.1521C63.5566 58.1235 62.7232 58.4754 62.5148 60.1827C62.2875 62.0517 61.1653 63.4594 59.1007 63.4879C56.9936 63.5212 56.0039 62.0136 55.6203 60.2113C55.2463 58.4374 55.251 56.5922 54.9716 54.7946C54.6544 52.7354 55.3362 51.9412 57.5002 51.9982C62.6237 52.1314 67.7567 52.0078 72.8802 52.0981C74.6228 52.1314 75.2573 51.5465 75.2099 49.7631C75.0773 44.6983 75.2147 39.6383 74.4523 34.5926C73.2211 26.4462 69.0826 19.0036 57.8554 19.7169C50.7762 20.1639 45.1697 25.1193 43.8959 32.1862C42.9584 37.3841 43.0152 42.5821 42.8447 47.9036C43.0483 52.8495 42.9584 57.881 43.8959 62.9267C46.2588 75.6528 58.6793 78.6632 67.3069 73.7839C72.7287 70.7165 74.1161 65.1761 74.8406 59.4694C74.9968 58.2424 74.0119 58.133 73.0791 58.1378ZM55.1421 37.7551C55.2368 36.8943 55.3362 36.024 55.5304 35.1823C55.985 33.1992 57.1877 31.7677 59.2712 31.9437C61.2647 32.1101 62.4296 33.5986 62.7042 35.6008C62.8321 36.5281 62.7279 37.4888 62.7279 38.4351C62.8889 40.9461 61.6641 42.2016 59.0534 42.2016C56.1239 42.2016 54.8217 40.7194 55.1468 37.7551H55.1421Z" fill="#FEFEFE"/>
<path d="M136.796 35.4153C136.796 27.0977 136.848 18.7801 136.758 10.4624C136.739 8.55065 137.35 7.94193 139.206 8.06558C141.328 8.20825 143.473 8.23203 145.589 8.06082C147.673 7.89437 148.156 8.77892 148.08 10.6764C147.952 13.9198 148.08 17.1726 148 20.4207C147.957 22.1566 148.658 22.8937 150.367 22.8461C152.261 22.7891 154.155 22.8699 156.045 22.8033C157.47 22.751 158.048 23.3407 157.996 24.7722C157.929 26.5936 157.91 28.4197 157.996 30.2364C158.081 32.0055 157.333 32.6903 155.609 32.5714C153.881 32.4478 152.143 32.3907 150.415 32.3955C148.805 32.4002 147.99 33.2134 148 34.9207C148.047 42.0494 148 49.1829 148.066 56.3116C148.094 59.6025 149.354 62.1801 152.782 63.1169C153.829 63.4023 154.179 63.9207 154.065 64.9859C153.791 67.5873 153.805 70.2029 154.065 72.809C154.189 74.0692 153.653 74.521 152.446 74.5162C143.449 74.4592 137.454 69.2803 136.9 59.9069C136.659 55.8028 136.825 51.6701 136.815 47.5517C136.806 43.5094 136.815 39.4719 136.815 35.4296H136.801L136.796 35.4153Z" fill="#FEFEFE"/>
<path d="M13.2018 8.92159C13.6233 12.5073 10.4649 16.4926 6.66249 16.1502C3.38099 15.8553 -0.0141612 12.4883 4.44246e-05 8.80746C0.0142501 5.09805 3.53252 0.979662 6.94187 1.26024C10.6685 1.56936 13.2018 4.39422 13.2018 8.92159Z" fill="#FE3C01"/>
</g>
<defs>
<clipPath id="clip0_212_2573">
<rect width="158" height="76" fill="white"/>
</clipPath>
</defs>
</svg>
